<?xml version="1.0" encoding="UTF-8"?>
<svg id="Layer_1" data-name="Layer 1" xmlns="http://www.w3.org/2000/svg"
    xmlns:xlink="http://www.w3.org/1999/xlink" viewBox="0 0 364.23 349.12">
    <defs>
        <style>
            .cls-1 {
                fill: url(#linear-gradient-8);
            }

            .cls-2 {
                fill: url(#linear-gradient-7);
            }

            .cls-3 {
                fill: url(#linear-gradient-5);
            }

            .cls-4 {
                fill: url(#linear-gradient-6);
            }

            .cls-5 {
                fill: url(#linear-gradient-9);
            }

            .cls-6 {
                fill: url(#linear-gradient-4);
            }

            .cls-7 {
                fill: url(#linear-gradient-3);
            }

            .cls-8 {
                fill: url(#linear-gradient-2);
            }

            .cls-9 {
                fill: url(#linear-gradient);
            }

            .cls-10 {
                fill: url(#linear-gradient-10);
            }

            .cls-11 {
                fill: url(#linear-gradient-11);
            }

            .cls-12 {
                fill: url(#linear-gradient-12);
            }

            .cls-13 {
                fill: url(#linear-gradient-13);
            }

            .cls-14 {
                fill: url(#linear-gradient-14);
            }

            .cls-15 {
                fill: url(#linear-gradient-15);
            }
        </style>
        <linearGradient id="linear-gradient" x1="176.79" y1="2.1" x2="193.33" y2="95.93"
            gradientUnits="userSpaceOnUse">
            <stop offset="0" stop-color="#c6c6c6" />
            <stop offset=".61" stop-color="#7a7b7b" />
            <stop offset="1" stop-color="#505050" />
        </linearGradient>
        <linearGradient id="linear-gradient-2" x1="13.74" y1="137.32" x2="86.84" y2="153.36"
            xlink:href="#linear-gradient" />
        <linearGradient id="linear-gradient-3" x1="18.52" y1="159.11" x2="136.39" y2="149.02"
            gradientUnits="userSpaceOnUse">
            <stop offset="0" stop-color="#505050" />
            <stop offset=".39" stop-color="#7a7b7b" />
            <stop offset="1" stop-color="#c6c6c6" />
        </linearGradient>
        <linearGradient id="linear-gradient-4" x1="158.63" y1="97.99" x2="165.36" y2="136.15"
            xlink:href="#linear-gradient-3" />
        <linearGradient id="linear-gradient-5" x1="68.3" y1="341.1" x2="127.75" y2="270.24"
            xlink:href="#linear-gradient" />
        <linearGradient id="linear-gradient-6" x1="103.45" y1="169.5" x2="110.14" y2="207.46"
            xlink:href="#linear-gradient-3" />
        <linearGradient id="linear-gradient-7" x1="97.81" y1="219.39" x2="118.93" y2="339.17"
            xlink:href="#linear-gradient" />
        <linearGradient id="linear-gradient-8" x1="260" y1="271.04" x2="273.85" y2="349.58"
            xlink:href="#linear-gradient-3" />
        <linearGradient id="linear-gradient-9" x1="136.78" y1="262.86" x2="175.95" y2="256.89"
            xlink:href="#linear-gradient-3" />
        <linearGradient id="linear-gradient-10" x1="237.12" y1="239.98" x2="253.7" y2="334.03"
            xlink:href="#linear-gradient" />
        <linearGradient id="linear-gradient-11" x1="354.66" y1="130.36" x2="285.27" y2="166.01"
            gradientUnits="userSpaceOnUse">
            <stop offset="0" stop-color="#84bc33" />
            <stop offset=".47" stop-color="#1ea638" />
            <stop offset="1" stop-color="#0d5d2b" />
        </linearGradient>
        <linearGradient id="linear-gradient-12" x1="204.63" y1="140.23" x2="161.67" y2="22.19"
            gradientUnits="userSpaceOnUse">
            <stop offset="0" stop-color="#c6c6c6" />
            <stop offset=".51" stop-color="#b6b5b5" />
            <stop offset="1" stop-color="#505050" />
        </linearGradient>
        <linearGradient id="linear-gradient-13" x1="262.34" y1="156.92" x2="223.12" y2="140.34"
            gradientUnits="userSpaceOnUse">
            <stop offset="0" stop-color="#0c5c1d" />
            <stop offset=".53" stop-color="#18a638" />
            <stop offset="1" stop-color="#84bc33" />
        </linearGradient>
        <linearGradient id="linear-gradient-14" x1="242.79" y1="215.58" x2="237.75" y2="259.39"
            xlink:href="#linear-gradient" />
        <linearGradient id="linear-gradient-15" x1="337.84" y1="131.28" x2="247.46" y2="177.71"
            xlink:href="#linear-gradient-13" />
    </defs>
    <path class="cls-9"
        d="M214.77,60.66c-3.59,14.54-9.59,25.17-16.97,35.37-5.88-6.31-11.43-12.67-15.72-18.32.05-.05.09-.11.12-.15,6.84-9.06,11.77-19.6,12.03-29.47.23-8.1-.96-14.4-3.04-18.76,0,0-.09-.21-.27-.61-.84-1.73-3.62-6.84-8.83-10.25-3.03-1.98-6.87-3.39-11.63-3.24-10.05.32-18.29,6.11-21.55,17.24C153.8,11.97,170.08,0,182.08,0c16.76,0,41.89,23.36,32.69,60.66Z" />
    <path class="cls-8"
        d="M68.81,119.19c12.71,7.91,20.97,16.91,28.39,27.08-7.82,3.64-15.58,6.96-22.29,9.29-.03-.06-.07-.12-.11-.16-6.5-9.31-15-17.25-24.3-20.55-7.64-2.72-13.99-3.54-18.78-2.91,0,0-.23.02-.66.07-1.91.26-7.63,1.33-12.48,5.23-2.82,2.27-5.35,5.49-6.68,10.06-2.8,9.66.16,19.29,9.73,25.82C3.65,162.12-2.69,142.93,1.02,131.52c5.18-15.94,35.17-32.62,67.79-12.33Z" />
    <path class="cls-7"
        d="M139.7,137.18l.05.07c4.47,6.31,2.6,15.16-4.12,19-6.55,3.75-13.38,7.05-20.45,9.84-1.32.52-2.54.99-3.61,1.38-8.57,3.12-16.33,6.21-24.09,8.7-11.99,3.87-23.96,6.28-38.89,5.19-10.75-.78-19.63-3.79-26.71-8.07-.1-.08-.16-.1-.23-.18-9.58-6.52-12.54-16.15-9.74-25.81,3.25-11.19,13.79-14.56,19.13-15.29-4.8.78-7.89,3.06-8.96,6.36-2.16,6.62,4.72,14.8,20.9,19.58,9.48,2.8,21,1.38,31.75-2.34.05,0,.13-.03.18-.05,6.7-2.34,14.46-5.66,22.28-9.29,5.45-2.54,10.9-5.22,16.07-7.87,3.03-1.53,6.01-3.16,8.92-4.89,5.93-3.5,13.54-1.95,17.52,3.67Z" />
    <path class="cls-6"
        d="M182.08,116.25c-.55.7-1.14,1.45-1.79,2.26-4.62,5.65-9.61,10.96-14.93,15.9-5.8,5.38-15.05,4.3-19.61-2.16l-.05-.07c-3.84-5.43-3.05-12.89,1.9-17.33,2.14-1.92,4.24-3.91,6.28-5.95,4.1-4.13,8.36-8.49,12.46-12.88,4.78,6.62,10.13,13.03,15.73,20.22Z" />
    <path class="cls-3"
        d="M79.34,276.1c11.45-9.65,22.56-14.71,34.53-18.62,1.05,8.56,1.8,16.97,1.94,24.07-.06.01-.14.03-.19.05-10.86,3.3-21.05,8.93-27.06,16.76-4.95,6.42-7.69,12.21-8.58,16.96,0,0-.05.23-.14.65-.34,1.89-1.1,7.66,1.12,13.48,1.28,3.38,3.56,6.78,7.5,9.46,8.32,5.65,18.39,5.82,27.57-1.27-16.02,13.7-36.23,13.8-45.93,6.74-13.55-9.86-20.14-43.53,9.24-68.28Z" />
    <path class="cls-4"
        d="M95.86,192.01c-2.65-5.17-5.48-10.59-8.39-15.84,7.76-2.49,15.52-5.58,24.09-8.7.23.34.49.7.73,1.09,4.25,6.47,8,13.21,11.23,20.17,3.35,7.21-.54,15.72-8.14,18.05h-.05c-6.34,1.96-13.15-1.1-15.85-7.16-1.14-2.57-2.35-5.11-3.64-7.62Z" />
    <path class="cls-2"
        d="M139.3,275.97c-.05,12.59-1.43,24.72-7.09,38.61-4.05,9.97-9.68,17.5-15.94,22.87-.1.1-.16.16-.23.21-9.19,7.09-19.26,6.93-27.57,1.27-9.63-6.54-9.58-17.63-8.62-22.95-.75,4.83.47,8.46,3.27,10.51,5.63,4.08,15.55.08,25.08-13.84,5.58-8.15,7.81-19.55,7.61-30.92v-.18c-.13-7.09-.88-15.5-1.95-24.07-.73-5.95-1.58-11.99-2.49-17.71-.54-3.43-1.19-6.83-1.95-10.21-1.52-6.75,2.34-13.54,8.96-15.56h.05c7.35-2.26,15.15,2.21,16.72,9.73,1.4,6.7,2.38,13.5,2.93,20.36.21,2.65.36,4.83.42,6.28.29,9.11.83,17.45.8,25.6Z" />
    <path class="cls-1"
        d="M231.81,314.62c-5.63-13.87-7.01-26-7.03-38.59,8.47,1.65,16.69,3.54,23.49,5.6-.01.06-.01.14,0,.19-.22,11.35,1.98,22.78,7.57,30.92,4.57,6.69,9.23,11.09,13.48,13.4,0,0,.2.12.58.33,1.69.91,6.95,3.41,13.17,3.11,3.61-.18,7.55-1.29,11.32-4.21,7.95-6.16,11.22-15.69,7.32-26.61,8.07,19.47,1.92,38.72-7.79,45.76-13.56,9.84-47.62,5.69-62.08-29.9Z" />
    <path class="cls-5"
        d="M138.52,250.34c8.29-2.34,16.71-3.99,25.19-4.95,7.74-.88,14.49,5.32,14.49,13.11v.11c0,6.73-5.06,12.42-11.76,13.08-3.17.31-6.33.72-9.48,1.22-5.74.91-11.76,1.92-17.65,3.06.03-8.15-.52-16.49-.8-25.6l.02-.03Z" />
    <path class="cls-10"
        d="M294.37,325.37c-9.19,7.11-19.7,3.66-24.48,1.09,4.36,2.21,8.2,2.18,11.01.13,5.63-4.08,4.88-14.75-5.4-28.14-6.02-7.82-16.17-13.45-27.03-16.77-.05-.03-.13-.05-.21-.05-6.78-2.08-15.01-3.95-23.47-5.61-5.89-1.14-11.89-2.18-17.63-3.09-3.14-.5-6.29-.9-9.44-1.22-6.69-.66-11.75-6.35-11.75-13.08v-.03c0-7.87,6.86-14.03,14.67-13.11,6.38.75,12.72,1.89,19,3.39,2.54.6,4.62,1.12,5.97,1.5,8.78,2.55,16.87,4.62,24.61,7.17,11.97,3.92,23.05,9.01,34.5,18.67,8.23,6.93,13.66,14.62,16.85,22.25.05.13.08.18.1.29,3.89,10.9.62,20.43-7.32,26.61Z" />
    <path class="cls-11"
        d="M315.59,181.52c-14.94,1.07-26.9-1.37-38.88-5.25,4.19-7.54,8.53-14.78,12.59-20.6.06.03.13.05.18.07,10.73,3.72,22.27,5.16,31.74,2.36,7.78-2.28,13.4-5.35,16.91-8.67,0,0,.17-.15.49-.45,1.39-1.33,5.39-5.55,7.03-11.56.95-3.49,1.11-7.58-.5-12.06-3.4-9.46-11.45-15.52-23.04-15.19,21.01-1.66,37.41,10.15,41.11,21.56,5.16,15.94-9.31,47.05-47.63,49.79Z" />
    <path class="cls-12"
        d="M218.48,132.18l-.03.04c-4.63,6.57-13.97,7.44-19.84,1.96-4.4-4.12-8.59-8.49-12.53-13.09-1.69-1.97-3.09-3.66-4-4.83-5.61-7.19-10.96-13.6-15.73-20.22-7.37-10.2-13.37-20.85-16.95-35.36-2.6-10.46-2.47-19.86-.57-27.91.03-.16.05-.21.08-.29,3.25-11.14,11.5-16.93,21.55-17.26,11.63-.36,18.12,8.62,20.46,13.5-2.23-4.34-5.35-6.57-8.83-6.57-6.96,0-12.62,9.09-12.15,25.94.29,9.86,5.19,20.41,12.02,29.47.03.05.08.1.13.16,4.28,5.66,9.84,12.02,15.73,18.33,4.13,4.41,8.41,8.83,12.54,12.96,2.02,2.01,4.09,3.97,6.2,5.86,4.95,4.44,5.75,11.9,1.92,17.33Z" />
    <path class="cls-13"
        d="M267.03,146.37c-4.83,6.57-9.29,13.63-14.41,21.18-.8-.29-1.69-.62-2.62-.99-7.47-2.9-14.69-6.36-21.6-10.34-6.66-3.83-8.45-12.65-4.02-18.92l.07-.1c3.93-5.56,11.48-7.27,17.34-3.79,2.95,1.75,5.96,3.41,9.02,4.98,5.22,2.67,10.72,5.4,16.23,7.97Z" />
    <path class="cls-14"
        d="M245.68,213.96l.09.03c6.62,2.03,10.49,8.82,8.96,15.58-.77,3.4-1.43,6.82-1.98,10.26-.91,5.74-1.79,11.76-2.52,17.73-7.74-2.54-15.84-4.62-24.61-7.17.03-.41.03-.83.05-1.3.4-8.58,1.51-17.09,3.3-25.44,1.6-7.49,9.38-11.93,16.71-9.69Z" />
    <path class="cls-15"
        d="M338.63,148.99c3.43-3.48,4.6-7.14,3.53-10.44-2.16-6.62-12.54-9.22-28.43-3.56-9.29,3.3-17.81,11.21-24.33,20.51-.03.05-.08.1-.1.16-4.08,5.84-8.41,13.08-12.59,20.61-2.91,5.24-5.76,10.64-8.39,15.78-1.28,2.49-2.49,5.02-3.63,7.58-2.69,6.05-9.5,9.11-15.83,7.17h0c-7.72-2.36-11.46-11.02-8.02-18.32,2.62-5.58,5.57-11.01,8.81-16.29,1.19-1.95,2.21-3.56,2.96-4.65,5.11-7.56,9.58-14.62,14.41-21.18,7.43-10.18,15.68-19.16,28.4-27.05,9.16-5.69,18.12-8.46,26.38-9.14h.31c11.58-.34,19.63,5.71,23.03,15.19,3.95,10.96-2.6,19.89-6.52,23.63Z" />
</svg>